<?xml version="1.0" standalone="no"?>
<!DOCTYPE svg PUBLIC "-//W3C//DTD SVG 20010904//EN"
 "http://www.w3.org/TR/2001/REC-SVG-20010904/DTD/svg10.dtd">
<svg version="1.0" xmlns="http://www.w3.org/2000/svg"
 width="512.000000pt" height="512.000000pt" viewBox="0 0 512.000000 512.000000"
 preserveAspectRatio="xMidYMid meet">
<metadata>
Created by potrace 1.11, written by Peter Selinger 2001-2013
</metadata>
<g transform="translate(0.000000,512.000000) scale(0.100000,-0.100000)"
fill="#000000" stroke="none">
<path d="M3361 4456 c-8 -9 -18 -13 -24 -9 -5 3 -7 1 -4 -4 17 -27 -103 -86
-175 -86 -51 0 -135 20 -144 34 -3 5 -12 9 -20 9 -8 0 -522 -508 -1143 -1129
l-1130 -1130 21 -43 c48 -100 27 -236 -49 -311 l-36 -36 45 -45 c34 -33 51
-43 67 -39 53 14 99 -32 81 -82 -5 -15 5 -32 49 -75 51 -51 60 -55 101 -55 42
0 45 -2 56 -35 8 -24 9 -39 2 -47 -8 -10 5 -29 48 -71 50 -49 63 -57 84 -52
52 14 91 -28 77 -82 -5 -16 7 -34 51 -78 49 -48 61 -56 80 -49 48 18 93 -29
79 -83 -9 -32 100 -138 130 -127 12 4 30 5 41 2 24 -6 46 -54 38 -81 -5 -15 5
-32 37 -66 l43 -46 43 39 c84 78 210 95 311 42 l38 -20 48 49 c27 27 53 46 59
43 5 -4 7 -3 3 2 -10 11 83 105 96 98 6 -4 8 -2 3 2 -10 11 63 86 76 78 6 -3
7 -2 4 4 -8 12 147 165 158 156 4 -5 5 -3 2 3 -8 14 167 187 179 177 5 -5 6
-4 1 1 -9 12 104 127 117 119 6 -4 8 -3 4 2 -10 11 83 105 96 98 6 -4 8 -2 3
2 -10 11 63 86 76 78 6 -3 7 -2 4 4 -8 12 167 185 178 176 4 -5 6 -3 2 3 -7
13 87 106 98 96 5 -4 5 -2 2 4 -8 14 26 47 38 37 4 -5 5 -3 2 3 -8 13 147 167
158 157 4 -5 5 -3 2 3 -5 9 164 187 174 182 2 -2 3 -1 1 1 -5 9 152 160 161
154 6 -3 7 -2 4 4 -8 12 87 105 98 95 5 -4 6 -2 2 4 -6 11 106 127 116 119 4
-3 5 -2 2 2 -8 10 167 183 178 176 6 -3 7 -1 4 5 -4 5 5 21 20 34 16 14 43 41
62 61 l33 36 -22 46 c-34 70 -33 164 4 238 15 32 41 67 57 79 l29 22 -46 47
c-39 40 -50 46 -69 39 -16 -6 -31 -3 -55 11 -30 18 -32 23 -26 57 5 34 2 41
-50 93 -52 52 -59 56 -86 48 -25 -7 -34 -4 -55 17 -20 20 -24 32 -19 57 6 28
1 37 -50 89 -46 46 -61 55 -75 47 -42 -22 -96 28 -84 79 5 23 -3 35 -54 86
-36 36 -61 54 -65 47 -8 -13 -51 -7 -71 9 -21 17 -28 47 -16 68 8 16 0 28 -49
77 -50 49 -62 57 -84 51 -50 -12 -99 41 -77 83 8 14 1 27 -38 65 -42 41 -49
45 -60 32z m316 -823 l503 -502 -1092 -1092 -1091 -1091 -516 516 -516 516
1090 1090 c912 912 1091 1087 1104 1077 8 -7 241 -238 518 -514z"/>
<path d="M2130 3009 c-558 -559 -1016 -1021 -1018 -1028 -4 -11 870 -891 885
-891 12 0 2048 2038 2043 2044 -32 33 -565 566 -707 706 l-188 186 -1015
-1017z"/>
</g>
</svg>
